<?xml version="1.0" encoding="UTF-8" standalone="no"?>
<!-- Generator: Adobe Illustrator 16.0.0, SVG Export Plug-In . SVG Version: 6.00 Build 0)  -->

<svg
   xmlns:dc="http://purl.org/dc/elements/1.1/"
   xmlns:cc="http://creativecommons.org/ns#"
   xmlns:rdf="http://www.w3.org/1999/02/22-rdf-syntax-ns#"
   xmlns:svg="http://www.w3.org/2000/svg"
   xmlns="http://www.w3.org/2000/svg"
   xmlns:sodipodi="http://sodipodi.sourceforge.net/DTD/sodipodi-0.dtd"
   xmlns:inkscape="http://www.inkscape.org/namespaces/inkscape"
   version="1.1"
   id="Capa_1"
   x="0px"
   y="0px"
   width="24"
   height="12"
   viewBox="0 0 24 12"
   xml:space="preserve"
   sodipodi:docname="full-battery-.svg"
   inkscape:version="0.92.2 2405546, 2018-03-11"><metadata
   id="metadata4242"><rdf:RDF><cc:Work
       rdf:about=""><dc:format>image/svg+xml</dc:format><dc:type
         rdf:resource="http://purl.org/dc/dcmitype/StillImage" /><dc:title></dc:title></cc:Work></rdf:RDF></metadata><defs
   id="defs4240" /><sodipodi:namedview
   pagecolor="#ffffff"
   bordercolor="#666666"
   borderopacity="1"
   objecttolerance="10"
   gridtolerance="10"
   guidetolerance="10"
   inkscape:pageopacity="0"
   inkscape:pageshadow="2"
   inkscape:window-width="1920"
   inkscape:window-height="968"
   id="namedview4238"
   showgrid="false"
   inkscape:zoom="7.375"
   inkscape:cx="16"
   inkscape:cy="16"
   inkscape:window-x="0"
   inkscape:window-y="26"
   inkscape:window-maximized="1"
   inkscape:current-layer="Capa_1" />
<g
   id="g4205"
   style="fill:#ffffff"
   transform="matrix(0.75,0,0,0.75,0,-6)">
	<g
   id="Full_x5F_Battery"
   style="fill:#ffffff">
		<g
   id="g4202"
   style="fill:#ffffff">
			<path
   d="M 23,12 H 5 c -0.553,0 -1,0.447 -1,1 v 6 c 0,0.553 0.447,1 1,1 h 18 c 0.553,0 1,-0.447 1,-1 v -6 c 0,-0.553 -0.447,-1 -1,-1 z m 7,-1 H 28 C 28,9.346 26.654,8 25,8 H 3 C 1.346,8 0,9.346 0,11 v 10 c 0,1.654 1.346,3 3,3 h 22 c 1.654,0 3,-1.346 3,-3 h 2 c 1.104,0 2,-0.896 2,-2 v -6 c 0,-1.103 -0.896,-2 -2,-2 z m -4,10 c 0,0.552 -0.448,1 -1,1 H 3 C 2.448,22 2,21.552 2,21 V 11 c 0,-0.552 0.448,-1 1,-1 h 22 c 0.552,0 1,0.448 1,1 z m 4,-2 h -2 v -6 h 2 z"
   id="path4200"
   style="fill:#ffffff"
   inkscape:connector-curvature="0" />
		</g>
	</g>
</g>
<g
   id="g4207"
   style="fill:#ffffff"
   transform="matrix(0.75,0,0,0.75,0,-14)">
</g>
<g
   id="g4209"
   style="fill:#ffffff"
   transform="matrix(0.75,0,0,0.75,0,-14)">
</g>
<g
   id="g4211"
   style="fill:#ffffff"
   transform="matrix(0.75,0,0,0.75,0,-14)">
</g>
<g
   id="g4213"
   style="fill:#ffffff"
   transform="matrix(0.75,0,0,0.75,0,-14)">
</g>
<g
   id="g4215"
   style="fill:#ffffff"
   transform="matrix(0.75,0,0,0.75,0,-14)">
</g>
<g
   id="g4217"
   style="fill:#ffffff"
   transform="matrix(0.75,0,0,0.75,0,-14)">
</g>
<g
   id="g4219"
   style="fill:#ffffff"
   transform="matrix(0.75,0,0,0.75,0,-14)">
</g>
<g
   id="g4221"
   style="fill:#ffffff"
   transform="matrix(0.75,0,0,0.75,0,-14)">
</g>
<g
   id="g4223"
   style="fill:#ffffff"
   transform="matrix(0.75,0,0,0.75,0,-14)">
</g>
<g
   id="g4225"
   style="fill:#ffffff"
   transform="matrix(0.75,0,0,0.75,0,-14)">
</g>
<g
   id="g4227"
   style="fill:#ffffff"
   transform="matrix(0.75,0,0,0.75,0,-14)">
</g>
<g
   id="g4229"
   style="fill:#ffffff"
   transform="matrix(0.75,0,0,0.75,0,-14)">
</g>
<g
   id="g4231"
   style="fill:#ffffff"
   transform="matrix(0.75,0,0,0.75,0,-14)">
</g>
<g
   id="g4233"
   style="fill:#ffffff"
   transform="matrix(0.75,0,0,0.75,0,-14)">
</g>
<g
   id="g4235"
   style="fill:#ffffff"
   transform="matrix(0.75,0,0,0.75,0,-14)">
</g>
</svg>