<svg xmlns="http://www.w3.org/2000/svg" xmlns:svg="http://www.w3.org/2000/svg" id="Capa_1" width="24" height="12" x="0" y="0" version="1.1" viewBox="0 0 24 12" xml:space="preserve"><metadata id="metadata4242"/><g id="g4205" fill="#fff" transform="matrix(0.75,0,0,0.75,0,-6)"><g id="Full_x5F_Battery" fill="#fff"><g id="g4202" fill="#fff"><path id="path4200" fill="#fff" d="M 23,12 H 5 c -0.553,0 -1,0.447 -1,1 v 6 c 0,0.553 0.447,1 1,1 h 18 c 0.553,0 1,-0.447 1,-1 v -6 c 0,-0.553 -0.447,-1 -1,-1 z m 7,-1 H 28 C 28,9.346 26.654,8 25,8 H 3 C 1.346,8 0,9.346 0,11 v 10 c 0,1.654 1.346,3 3,3 h 22 c 1.654,0 3,-1.346 3,-3 h 2 c 1.104,0 2,-0.896 2,-2 v -6 c 0,-1.103 -0.896,-2 -2,-2 z m -4,10 c 0,0.552 -0.448,1 -1,1 H 3 C 2.448,22 2,21.552 2,21 V 11 c 0,-0.552 0.448,-1 1,-1 h 22 c 0.552,0 1,0.448 1,1 z m 4,-2 h -2 v -6 h 2 z"/></g></g></g></svg>