<svg xmlns="http://www.w3.org/2000/svg" xmlns:svg="http://www.w3.org/2000/svg" id="Capa_1" width="24" height="12" x="0" y="0" version="1.1" viewBox="0 0 24 12" xml:space="preserve"><metadata id="metadata4330"/><g id="g4293" transform="translate(0,-20)"><g id="Low_x5F_Charged_x5F_Battery" fill="#fff" transform="matrix(0.75,0,0,0.75,0,14)"><g id="g4290" fill="#fff"><path id="path4288" fill="#fff" d="M 30,11 H 28 C 28,9.346 26.654,8 25,8 H 3 C 1.346,8 0,9.346 0,11 v 10 c 0,1.654 1.346,3 3,3 h 22 c 1.654,0 3,-1.346 3,-3 h 2 c 1.104,0 2,-0.896 2,-2 v -6 c 0,-1.103 -0.896,-2 -2,-2 z m -4,10 c 0,0.552 -0.448,1 -1,1 H 3 C 2.448,22 2,21.552 2,21 V 11 c 0,-0.552 0.448,-1 1,-1 h 22 c 0.552,0 1,0.448 1,1 z m 4,-2 h -2 v -6 h 2 z M 7.447,12.895 C 7.201,12.402 6.55,12 6,12 H 5 c -0.55,0 -1,0.45 -1,1 v 6 c 0,0.55 0.45,1 1,1 h 5 c 0.55,0 0.799,-0.402 0.553,-0.895 z"/></g></g></g></svg>