<?xml version="1.0" encoding="UTF-8" standalone="no"?>
<svg width="16px" height="16px" viewBox="0 0 16 16" version="1.1" xmlns="http://www.w3.org/2000/svg" xmlns:xlink="http://www.w3.org/1999/xlink">
    <!-- Generator: Sketch 3.8.3 (29802) - http://www.bohemiancoding.com/sketch -->
    <title>小锁</title>
    <desc>Created with Sketch.</desc>
    <defs></defs>
    <g id="Page-1" stroke="none" stroke-width="1" fill="none" fill-rule="evenodd">
        <g id="小锁" fill="#FFFFFF">
            <path d="M5.987,11.006 L9.994,11.006 L9.994,9 L5.987,9 L5.987,11.006 Z M7.008,6.74 C7.008,6.341 7.333,6.016 7.732,6.016 L8.283,6.016 C8.683,6.016 9.008,6.341 9.008,6.74 L9.008,8.016 L7.008,8.016 L7.008,6.74 Z M10.459,8 L10,8 L10,6.74 C10,5.789 9.234,5 8.283,5 L7.732,5 C6.781,5 6,5.789 6,6.74 L6,8 L5.557,8 C5.254,8 5,8.261 5,8.565 L5,11.466 C5,11.77 5.254,12 5.557,12 L10.459,12 C10.762,12 11,11.77 11,11.466 L11,8.565 C11,8.261 10.762,8 10.459,8 L10.459,8 Z" id="Page-1"></path>
        </g>
    </g>
</svg>