<?xml version="1.0" encoding="iso-8859-1"?>
<!-- Generator: Adobe Illustrator 18.0.0, SVG Export Plug-In . SVG Version: 6.00 Build 0)  -->
<!DOCTYPE svg PUBLIC "-//W3C//DTD SVG 1.1//EN" "http://www.w3.org/Graphics/SVG/1.1/DTD/svg11.dtd">
<svg version="1.1" id="&#x56FE;&#x5C42;_1" xmlns="http://www.w3.org/2000/svg" xmlns:xlink="http://www.w3.org/1999/xlink" x="0px"
	 y="0px" viewBox="0 0 16 16" style="enable-background:new 0 0 16 16;" xml:space="preserve">
<g>
	<g style="opacity:0.3;">
		<path style="fill:#FFFFFF;" d="M14.958,7.079c-0.133,0-0.267-0.053-0.364-0.158C12.826,5.037,10.481,4,7.992,4
			S3.158,5.037,1.391,6.921C1.202,7.124,0.884,7.133,0.685,6.943C0.482,6.755,0.473,6.438,0.662,6.237C2.62,4.149,5.224,3,7.992,3
			s5.372,1.149,7.33,3.237c0.189,0.201,0.18,0.518-0.022,0.706C15.204,7.034,15.081,7.079,14.958,7.079z"/>
	</g>
	<g style="opacity:0.3;">
		<path style="fill:#FFFFFF;" d="M12.968,9.199c-0.133,0-0.267-0.053-0.364-0.158C11.368,7.725,9.73,7,7.992,7
			S4.616,7.725,3.381,9.041C3.193,9.244,2.874,9.253,2.675,9.063C2.473,8.875,2.463,8.559,2.652,8.357C4.078,6.837,5.975,6,7.992,6
			s3.914,0.837,5.34,2.357c0.189,0.201,0.18,0.518-0.022,0.706C13.214,9.154,13.091,9.199,12.968,9.199z"/>
	</g>
	<g style="opacity:0.3;">
		<path style="fill:#FFFFFF;" d="M5.006,11.318c-0.123,0-0.245-0.045-0.342-0.136c-0.201-0.188-0.212-0.505-0.022-0.706
			C5.534,9.524,6.724,9,7.992,9c1.268,0,2.458,0.524,3.352,1.477c0.189,0.201,0.18,0.518-0.022,0.706
			c-0.199,0.188-0.517,0.181-0.706-0.022c-1.408-1.497-3.843-1.496-5.245,0C5.272,11.266,5.139,11.318,5.006,11.318z"/>
	</g>
	<g>
		<path style="fill:#FFFFFF;" d="M6.66,12.569L8,13.996l1.337-1.424c0,0-0.013-0.007-0.021-0.015
			C8.582,11.775,7.324,11.862,6.66,12.569z"/>
	</g>
</g>
</svg>
