<?xml version="1.0" encoding="iso-8859-1"?>
<!-- Generator: Adobe Illustrator 18.0.0, SVG Export Plug-In . SVG Version: 6.00 Build 0)  -->
<!DOCTYPE svg PUBLIC "-//W3C//DTD SVG 1.1//EN" "http://www.w3.org/Graphics/SVG/1.1/DTD/svg11.dtd">
<svg version="1.1" id="&#x56FE;&#x5C42;_1" xmlns="http://www.w3.org/2000/svg" xmlns:xlink="http://www.w3.org/1999/xlink" x="0px"
	 y="0px" viewBox="0 0 16 16" style="enable-background:new 0 0 16 16;" xml:space="preserve">
<g>
	<g>
		<path style="fill:#FFFFFF;" d="M14.966,7.072c-0.133,0-0.267-0.053-0.364-0.158C12.834,5.03,10.489,3.993,8,3.993
			c-2.489,0-4.833,1.037-6.602,2.921C1.209,7.116,0.893,7.126,0.691,6.937C0.49,6.748,0.48,6.432,0.669,6.23
			C2.628,4.143,5.232,2.993,8,2.993c2.769,0,5.372,1.149,7.33,3.237c0.189,0.201,0.18,0.518-0.022,0.706
			C15.212,7.027,15.089,7.072,14.966,7.072z"/>
	</g>
	<g>
		<path style="fill:#FFFFFF;" d="M3.024,9.192c-0.123,0-0.246-0.045-0.342-0.136C2.48,8.868,2.47,8.552,2.659,8.351
			C4.086,6.83,5.982,5.993,8,5.993s3.914,0.837,5.34,2.357c0.189,0.201,0.18,0.518-0.022,0.706
			c-0.199,0.188-0.518,0.181-0.706-0.022C11.376,7.718,9.738,6.993,8,6.993S4.624,7.718,3.389,9.034
			C3.29,9.14,3.157,9.192,3.024,9.192z"/>
	</g>
	<g>
		<path style="fill:#FFFFFF;" d="M10.987,11.311c-0.133,0-0.266-0.053-0.364-0.157c-1.406-1.496-3.839-1.496-5.246,0
			c-0.189,0.201-0.506,0.211-0.707,0.021c-0.201-0.189-0.211-0.506-0.022-0.707C5.543,9.517,6.733,8.993,8,8.993
			s2.458,0.523,3.352,1.475c0.189,0.201,0.18,0.518-0.021,0.707C11.233,11.266,11.11,11.311,10.987,11.311z"/>
	</g>
	<g>
		<path style="fill:#FFFFFF;" d="M6.668,12.562l1.339,1.427l1.337-1.424c0,0-0.013-0.007-0.021-0.015
			C8.59,11.768,7.332,11.855,6.668,12.562z"/>
	</g>
</g>
</svg>
