<?xml version="1.0" encoding="UTF-8" standalone="no"?>
<svg width="48px" height="48px" viewBox="0 0 48 48" version="1.1" xmlns="http://www.w3.org/2000/svg" xmlns:xlink="http://www.w3.org/1999/xlink">
    <!-- Generator: Sketch 3.8.3 (29802) - http://www.bohemiancoding.com/sketch -->
    <title>wireless-20-48px</title>
    <desc>Created with Sketch.</desc>
    <defs></defs>
    <g id="Page-1" stroke="none" stroke-width="1" fill="none" fill-rule="evenodd">
        <g id="wireless-20-48px">
            <path d="M38.0552595,20.0744361 C34.2435333,16.9056184 29.3443072,15 24,15 C18.7050453,15 13.8469893,16.8705857 10.0506174,19.9869716" id="Oval-53" stroke="#FFFFFF" stroke-width="2" stroke-linecap="round" opacity="0.2"></path>
            <path d="M34.0650585,24.5616892 C31.3159579,22.3343608 27.8138073,21 24,21 C20.2485619,21 16.7986705,22.2910747 14.0704162,24.4531336" id="Oval-53" stroke="#FFFFFF" stroke-width="2" stroke-linecap="round" opacity="0.2"></path>
            <path d="M30.0455976,29.0337207 C28.366534,27.7575116 26.2717301,27 24,27 C21.7498512,27 19.673283,27.7431873 18.0023678,28.9974896" id="Oval-53" stroke="#FFFFFF" stroke-width="2" stroke-linecap="round" opacity="0.2"></path>
            <path d="M25.4364793,32.5635207 C24.6679257,31.7949671 23.4017563,31.8150651 22.6084107,32.6084107 C21.8150651,33.4017563 21.7949671,34.6679257 22.5635207,35.4364793 C23.3320743,36.2050329 24.5982437,36.1849349 25.3915893,35.3915893 C26.1849349,34.5982437 26.2050329,33.3320743 25.4364793,32.5635207 Z" id="Path" fill="#FFFFFF"></path>
        </g>
    </g>
</svg>