<?xml version="1.0" encoding="UTF-8" standalone="no"?>
<svg
   xmlns:dc="http://purl.org/dc/elements/1.1/"
   xmlns:cc="http://creativecommons.org/ns#"
   xmlns:rdf="http://www.w3.org/1999/02/22-rdf-syntax-ns#"
   xmlns:svg="http://www.w3.org/2000/svg"
   xmlns="http://www.w3.org/2000/svg"
   xmlns:sodipodi="http://sodipodi.sourceforge.net/DTD/sodipodi-0.dtd"
   xmlns:inkscape="http://www.inkscape.org/namespaces/inkscape"
   width="256px"
   height="256px"
   viewBox="0 0 256 256"
   version="1.1"
   id="svg35"
   sodipodi:docname="deepin-installer.svg"
   inkscape:version="0.92.0 r15299">
  <metadata
     id="metadata39">
    <rdf:RDF>
      <cc:Work
         rdf:about="">
        <dc:format>image/svg+xml</dc:format>
        <dc:type
           rdf:resource="http://purl.org/dc/dcmitype/StillImage" />
        <dc:title>ISO安装器-256px</dc:title>
      </cc:Work>
    </rdf:RDF>
  </metadata>
  <sodipodi:namedview
     pagecolor="#ffffff"
     bordercolor="#666666"
     borderopacity="1"
     objecttolerance="10"
     gridtolerance="10"
     guidetolerance="10"
     inkscape:pageopacity="0"
     inkscape:pageshadow="2"
     inkscape:window-width="1366"
     inkscape:window-height="740"
     id="namedview37"
     showgrid="false"
     inkscape:zoom="0.921875"
     inkscape:cx="128"
     inkscape:cy="128"
     inkscape:window-x="0"
     inkscape:window-y="0"
     inkscape:window-maximized="1"
     inkscape:current-layer="svg35" />
  <!-- Generator: Sketch 39.1 (31720) - http://www.bohemiancoding.com/sketch -->
  <title
     id="title2">ISO安装器-256px</title>
  <desc
     id="desc4">Created with Sketch.</desc>
  <defs
     id="defs11">
    <linearGradient
       x1="49.9995456%"
       y1="0.694444444%"
       x2="49.999547%"
       y2="100%"
       id="linearGradient-1">
      <stop
         stop-color="#FFDD89"
         offset="0%"
         id="stop6" />
      <stop
         stop-color="#FFAF32"
         offset="100%"
         id="stop8" />
    </linearGradient>
  </defs>
  <g
     id="g33"
     transform="matrix(1.3697996,0,0,1.3328198,-46.249615,-9.6640982)"
     style="fill:none;fill-rule:evenodd;stroke:none;stroke-width:1">
    <g
       id="ISO安装器-256px">
      <path
         d="M 152.70337,19.561136 C 106.06308,5.9211202 57.206283,32.662151 43.560699,79.302206 29.920615,125.93676 56.66728,174.79882 103.30757,188.43883 149.93685,202.07885 198.80466,175.33782 212.43924,128.70326 226.07932,82.057709 199.33266,33.201152 152.70337,19.561136 Z"
         id="path11793"
         inkscape:connector-curvature="0"
         style="fill:#eff4f8" />
      <path
         d="M 152.14193,21.480201 C 106.56165,8.1501856 58.815231,34.283466 45.479774,79.863519 32.149692,125.4382 58.288478,173.18975 103.86876,186.51977 149.43829,199.84978 197.19546,173.7165 210.52017,128.14183 223.85025,82.556398 197.71146,34.810217 152.14193,21.480201 Z"
         id="path15"
         inkscape:connector-curvature="0"
         style="fill:#ffffff" />
      <path
         d="m 153.9937,32.40558 c -10.92244,-3.984578 -22.11089,-5.059437 -32.96819,-4.049721 -12.58904,0.99343 -18.73427,4.89115 -18.37055,4.185435 -20.585441,7.350297 -37.989694,23.158321 -46.051239,45.32864 -14.353352,39.482056 5.976943,83.144126 45.399799,97.519006 39.43915,14.37487 83.03664,-5.9823 97.38999,-45.46436 14.35878,-39.482056 -5.97152,-83.138693 -45.39981,-97.519 z m -49.39528,135.84478 c -4.20178,-1.53629 -8.126692,-3.49058 -11.823603,-5.72173 18.370553,1.41143 42.343473,-2.82286 58.509993,-17.95231 0,0 30.81845,-24.62404 8.52298,-65.034384 0,0 3.59377,16.285739 -0.98802,29.683474 0,0 -4.37006,18.21831 -23.79377,23.51118 -28.60898,7.79544 -61.20803,-12.23059 -74.833942,-21.93146 -1.026015,-9.9723 -0.114001,-20.275749 3.53948,-30.329478 5.417793,-14.896023 15.601941,-26.518612 28.044407,-34.324909 -3.110616,21.763176 -0.651438,41.800063 2.882613,50.192647 4.744641,11.25345 12.990762,24.37975 29.075852,26.06261 16.08509,1.68829 24.9555,-13.36516 24.9555,-13.36516 8.25155,-12.540022 9.54357,-30.54662 9.41871,-30.980906 -0.12486,-0.439715 -2.1986,-1.628574 -2.1986,-1.628574 -5.55351,22.474319 -14.71164,29.98204 -14.71164,29.98204 -14.44021,13.9406 -24.66779,4.2723 -24.66779,4.2723 -10.99302,-11.807164 -3.29519,-30.997192 -3.29519,-30.997192 4.30492,-13.07202 16.85053,-32.202334 31.06816,-41.930349 2.3669,0.586287 4.75007,0.950001 7.08982,1.802289 8.60441,3.137718 16.13938,7.866011 22.51261,13.674591 -10.39586,3.794578 -27.18125,11.818018 -27.18125,11.818018 -26.60581,11.204588 -28.40269,28.152614 -28.40269,28.152614 -2.75233,17.469169 11.10701,10.075439 11.10701,10.075439 14.2665,-6.948577 21.27488,-28.603181 21.27488,-28.603181 -4.45149,-0.846859 -7.9584,0.504858 -7.9584,0.504858 -5.69465,14.054592 -17.31196,19.836029 -17.31196,19.836029 -4.57093,2.421147 -5.63494,-1.856574 -5.63494,-1.856574 -0.77087,-3.202862 3.30605,-3.751148 3.30605,-3.751148 6.3298,-2.459147 10.37957,-9.109157 11.29702,-11.828875 0.91201,-2.725147 2.61118,-2.936862 2.61118,-2.936862 8.67498,-2.768575 16.58452,-3.387433 16.58452,-3.387433 10.77045,-1.324574 27.25726,3.810862 27.25726,3.810862 3.69691,1.487431 7.24182,2.60029 10.39043,3.490577 6.04209,15.09688 6.99753,32.289187 1.00973,48.770357 -12.90933,35.53006 -52.15847,53.85694 -87.65641,40.92064 z"
         id="path11795"
         inkscape:connector-curvature="0"
         style="opacity:0.8;fill:#00b7ff" />
      <g
         id="Page-1"
         transform="translate(80,168)"
         style="fill:#b08043" />
    </g>
  </g>
</svg>
