<?xml version="1.0" encoding="UTF-8" standalone="no"?>
<!-- Generator: Adobe Illustrator 19.0.0, SVG Export Plug-In . SVG Version: 6.00 Build 0)  -->

<svg
   xmlns:dc="http://purl.org/dc/elements/1.1/"
   xmlns:cc="http://creativecommons.org/ns#"
   xmlns:rdf="http://www.w3.org/1999/02/22-rdf-syntax-ns#"
   xmlns:svg="http://www.w3.org/2000/svg"
   xmlns="http://www.w3.org/2000/svg"
   xmlns:sodipodi="http://sodipodi.sourceforge.net/DTD/sodipodi-0.dtd"
   xmlns:inkscape="http://www.inkscape.org/namespaces/inkscape"
   version="1.1"
   id="Capa_1"
   x="0px"
   y="0px"
   viewBox="0 0 2.109375 1.875"
   xml:space="preserve"
   width="18"
   height="16"
   sodipodi:docname="speaker (6).svg"
   inkscape:version="0.92.2 2405546, 2018-03-11"><metadata
   id="metadata47"><rdf:RDF><cc:Work
       rdf:about=""><dc:format>image/svg+xml</dc:format><dc:type
         rdf:resource="http://purl.org/dc/dcmitype/StillImage" /><dc:title></dc:title></cc:Work></rdf:RDF></metadata><defs
   id="defs45" /><sodipodi:namedview
   pagecolor="#ffffff"
   bordercolor="#666666"
   borderopacity="1"
   objecttolerance="10"
   gridtolerance="10"
   guidetolerance="10"
   inkscape:pageopacity="0"
   inkscape:pageshadow="2"
   inkscape:window-width="1920"
   inkscape:window-height="968"
   id="namedview43"
   showgrid="false"
   inkscape:zoom="27.500004"
   inkscape:cx="-0.51601296"
   inkscape:cy="8.8214581"
   inkscape:window-x="0"
   inkscape:window-y="26"
   inkscape:window-maximized="1"
   inkscape:current-layer="Capa_1" />
<g
   id="g10"
   transform="matrix(0.03460531,0,0,0.03460531,0,-0.100666)"
   style="fill:#ffffff">
	<path
   d="m 26.894,7.358 c -0.551,0 -1.097,0.153 -1.579,0.444 -0.046,0.027 -0.09,0.059 -0.13,0.093 L 11.634,19.358 H 1 c -0.553,0 -1,0.447 -1,1 v 19 c 0,0.266 0.105,0.52 0.293,0.707 0.188,0.187 0.441,0.293 0.707,0.293 l 10.61,-0.005 13.543,12.44 c 0.05,0.046 0.104,0.086 0.161,0.12 0.482,0.291 1.028,0.444 1.579,0.444 1.713,0 3.106,-1.416 3.106,-3.156 V 10.514 C 30,8.774 28.606,7.358 26.894,7.358 Z M 13,38.358 c 0,0.553 -0.447,1 -1,1 -0.553,0 -1,-0.447 -1,-1 v -4 c 0,-0.553 0.447,-1 1,-1 0.553,0 1,0.447 1,1 z m 0,-13 c 0,0.553 -0.447,1 -1,1 -0.553,0 -1,-0.447 -1,-1 v -4 c 0,-0.553 0.447,-1 1,-1 0.553,0 1,0.447 1,1 z"
   id="path2"
   inkscape:connector-curvature="0"
   style="fill:#ffffff" />
	<path
   d="m 52.026,29.858 c 0,-8.347 -5.316,-15.76 -13.229,-18.447 -0.522,-0.177 -1.091,0.103 -1.269,0.626 -0.177,0.522 0.103,1.091 0.626,1.269 7.101,2.411 11.872,9.063 11.872,16.553 0,7.483 -4.762,14.136 -11.849,16.554 -0.522,0.178 -0.802,0.746 -0.623,1.27 0.142,0.415 0.53,0.677 0.946,0.677 0.107,0 0.216,-0.017 0.323,-0.054 7.898,-2.695 13.203,-10.108 13.203,-18.448 z"
   id="path4"
   inkscape:connector-curvature="0"
   style="fill:#ffffff" />
	<path
   d="M 44.453,6.374 C 43.945,6.161 43.358,6.395 43.141,6.904 42.926,7.413 43.163,8 43.672,8.216 52.376,11.909 58,20.405 58,29.858 c 0,9.777 -5.894,18.38 -15.015,21.914 -0.515,0.2 -0.771,0.779 -0.571,1.294 0.153,0.396 0.532,0.639 0.933,0.639 0.12,0 0.242,-0.021 0.361,-0.067 C 53.605,49.801 60,40.467 60,29.858 60,19.6 53.897,10.382 44.453,6.374 Z"
   id="path6"
   inkscape:connector-curvature="0"
   style="fill:#ffffff" />
	<path
   d="m 43.026,29.858 c 0,-5.972 -4.009,-11.302 -9.749,-12.962 -0.53,-0.151 -1.084,0.152 -1.238,0.684 -0.153,0.53 0.152,1.085 0.684,1.238 4.889,1.413 8.304,5.953 8.304,11.04 0,5.087 -3.415,9.627 -8.304,11.04 -0.531,0.153 -0.837,0.708 -0.684,1.238 0.127,0.438 0.526,0.723 0.961,0.723 0.092,0 0.185,-0.013 0.277,-0.039 5.741,-1.661 9.749,-6.991 9.749,-12.962 z"
   id="path8"
   inkscape:connector-curvature="0"
   style="fill:#ffffff" />
</g>
<g
   id="g12"
   transform="matrix(0.03460531,0,0,0.03460531,0,-0.100666)"
   style="fill:#ffffff">
</g>
<g
   id="g14"
   transform="matrix(0.03460531,0,0,0.03460531,0,-0.100666)"
   style="fill:#ffffff">
</g>
<g
   id="g16"
   transform="matrix(0.03460531,0,0,0.03460531,0,-0.100666)"
   style="fill:#ffffff">
</g>
<g
   id="g18"
   transform="matrix(0.03460531,0,0,0.03460531,0,-0.100666)"
   style="fill:#ffffff">
</g>
<g
   id="g20"
   transform="matrix(0.03460531,0,0,0.03460531,0,-0.100666)"
   style="fill:#ffffff">
</g>
<g
   id="g22"
   transform="matrix(0.03460531,0,0,0.03460531,0,-0.100666)"
   style="fill:#ffffff">
</g>
<g
   id="g24"
   transform="matrix(0.03460531,0,0,0.03460531,0,-0.100666)"
   style="fill:#ffffff">
</g>
<g
   id="g26"
   transform="matrix(0.03460531,0,0,0.03460531,0,-0.100666)"
   style="fill:#ffffff">
</g>
<g
   id="g28"
   transform="matrix(0.03460531,0,0,0.03460531,0,-0.100666)"
   style="fill:#ffffff">
</g>
<g
   id="g30"
   transform="matrix(0.03460531,0,0,0.03460531,0,-0.100666)"
   style="fill:#ffffff">
</g>
<g
   id="g32"
   transform="matrix(0.03460531,0,0,0.03460531,0,-0.100666)"
   style="fill:#ffffff">
</g>
<g
   id="g34"
   transform="matrix(0.03460531,0,0,0.03460531,0,-0.100666)"
   style="fill:#ffffff">
</g>
<g
   id="g36"
   transform="matrix(0.03460531,0,0,0.03460531,0,-0.100666)"
   style="fill:#ffffff">
</g>
<g
   id="g38"
   transform="matrix(0.03460531,0,0,0.03460531,0,-0.100666)"
   style="fill:#ffffff">
</g>
<g
   id="g40"
   transform="matrix(0.03460531,0,0,0.03460531,0,-0.100666)"
   style="fill:#ffffff">
</g>
</svg>