<?xml version="1.0" encoding="UTF-8"?>
<svg width="24px" height="24px" viewBox="0 0 24 24" version="1.1" xmlns="http://www.w3.org/2000/svg" xmlns:xlink="http://www.w3.org/1999/xlink">
    <!-- Generator: Sketch 47 (45396) - http://www.bohemiancoding.com/sketch -->
    <title>icon_cpu_dark</title>
    <desc>Created with Sketch.</desc>
    <defs></defs>
    <g id="Symbols" stroke="none" stroke-width="1" fill="none" fill-rule="evenodd">
        <g id="Group-20" fill-rule="nonzero" fill="#FFFFFF">
            <path d="M9,8 L9,15 L16,15 L16,8 L9,8 Z M17,7 L17,16 L8,16 L8,7 L17,7 Z M10,6.5 L10,4.5 L10,4 L11,4 L11,4.5 L11,6.5 L11,7 L10,7 L10,6.5 Z M12,6.5 L12,4.5 L12,4 L13,4 L13,4.5 L13,6.5 L13,7 L12,7 L12,6.5 Z M14,6.5 L14,4.5 L14,4 L15,4 L15,4.5 L15,6.5 L15,7 L14,7 L14,6.5 Z M10,18.5 L10,16.5 L10,16 L11,16 L11,16.5 L11,18.5 L11,19 L10,19 L10,18.5 Z M12,18.5 L12,16.5 L12,16 L13,16 L13,16.5 L13,18.5 L13,19 L12,19 L12,18.5 Z M14,18.5 L14,16.5 L14,16 L15,16 L15,16.5 L15,18.5 L15,19 L14,19 L14,18.5 Z M17.5,9 L19.5,9 L20,9 L20,10 L19.5,10 L17.5,10 L17,10 L17,9 L17.5,9 Z M17.5,11 L19.5,11 L20,11 L20,12 L19.5,12 L17.5,12 L17,12 L17,11 L17.5,11 Z M17.5,13 L19.5,13 L20,13 L20,14 L19.5,14 L17.5,14 L17,14 L17,13 L17.5,13 Z M5.5,9 L7.5,9 L8,9 L8,10 L7.5,10 L5.5,10 L5,10 L5,9 L5.5,9 Z M5.5,11 L7.5,11 L8,11 L8,12 L7.5,12 L5.5,12 L5,12 L5,11 L5.5,11 Z M5.5,13 L7.5,13 L8,13 L8,14 L7.5,14 L5.5,14 L5,14 L5,13 L5.5,13 Z" id="Combined-Shape"></path>
        </g>
    </g>
</svg>