<svg xmlns="http://www.w3.org/2000/svg" xmlns:xlink="http://www.w3.org/1999/xlink" width="24" height="24" version="1.1" viewBox="0 0 24 24"><title>icon_memory_dark</title><desc>Created with Sketch.</desc><g id="Symbols" fill="none" fill-rule="evenodd" stroke="none" stroke-width="1"><g id="mem" fill="#FFF" transform="translate(5.000000, 7.000000)"><path id="Combined-Shape" fill-rule="nonzero" d="M12,7 L11,7 L11,9.5 L11,10 L10,10 L10,9.5 L10,7 L9,7 L9,9.5 L9,10 L8,10 L8,9.5 L8,7 L7,7 L7,9.5 L7,10 L6,10 L6,9.5 L6,7 L5,7 L5,9.5 L5,10 L4,10 L4,9.5 L4,7 L3,7 L3,9.5 L3,10 L2,10 L2,9.5 L2,7 L1.38235294,7 L0.882352941,7 L0.882352941,6 L1.38235294,6 L13.6176471,6 L14.1176471,6 L14.1176471,7 L13.6176471,7 L13,7 L13,9.5 L13,10 L12,10 L12,9.5 L12,7 Z"/><path id="Combined-Shape" d="M0,9.52756646 L0,0.527566456 L0,0.0275664555 L0.5,0.0275664555 L14.5,0.0275664555 L15,0.0275664555 L15,0.527566456 L15,9.52756646 L15,10.0275665 L14.5,10.0275665 L0.5,10.0275665 L0,10.0275665 L0,9.52756646 Z M1,1.02756646 L1,9.02756646 L14,9.02756646 L14,1.02756646 L1,1.02756646 Z"/></g></g></svg>