<?xml version="1.0" encoding="UTF-8" standalone="no"?>
<!-- Generator: Adobe Illustrator 18.1.1, SVG Export Plug-In . SVG Version: 6.00 Build 0)  -->

<svg
   xmlns:dc="http://purl.org/dc/elements/1.1/"
   xmlns:cc="http://creativecommons.org/ns#"
   xmlns:rdf="http://www.w3.org/1999/02/22-rdf-syntax-ns#"
   xmlns:svg="http://www.w3.org/2000/svg"
   xmlns="http://www.w3.org/2000/svg"
   xmlns:sodipodi="http://sodipodi.sourceforge.net/DTD/sodipodi-0.dtd"
   xmlns:inkscape="http://www.inkscape.org/namespaces/inkscape"
   version="1.1"
   id="Capa_1"
   x="0px"
   y="0px"
   viewBox="0 0 0.31339844 0.31339844"
   xml:space="preserve"
   width="10"
   height="10"
   sodipodi:docname="mouse-cursor(副本).svg"
   inkscape:version="0.92.2 2405546, 2018-03-11"><metadata
   id="metadata41"><rdf:RDF><cc:Work
       rdf:about=""><dc:format>image/svg+xml</dc:format><dc:type
         rdf:resource="http://purl.org/dc/dcmitype/StillImage" /><dc:title></dc:title></cc:Work></rdf:RDF></metadata><defs
   id="defs39" /><sodipodi:namedview
   pagecolor="#ffffff"
   bordercolor="#666666"
   borderopacity="1"
   objecttolerance="10"
   gridtolerance="10"
   guidetolerance="10"
   inkscape:pageopacity="0"
   inkscape:pageshadow="2"
   inkscape:window-width="1920"
   inkscape:window-height="968"
   id="namedview37"
   showgrid="false"
   inkscape:zoom="38.5"
   inkscape:cx="1.1112893"
   inkscape:cy="4.2095657"
   inkscape:window-x="0"
   inkscape:window-y="26"
   inkscape:window-maximized="1"
   inkscape:current-layer="Capa_1" />
<g
   id="g4"
   style="fill:#ffffff"
   transform="matrix(-0.0195262,0,0,-0.01953125,0.31288783,0.31339837)">
	<path
   d="m 8.004,7.957 v 8.089 L 16.024,0 0.022,7.957 Z"
   id="path2"
   style="fill:#ffffff"
   inkscape:connector-curvature="0" />
</g>
<g
   id="g6"
   style="fill:#ffffff"
   transform="matrix(-0.0195262,0,0,-0.01953125,-4.295712e-4,0.62679637)">
</g>
<g
   id="g8"
   style="fill:#ffffff"
   transform="matrix(-0.0195262,0,0,-0.01953125,-4.295712e-4,0.62679637)">
</g>
<g
   id="g10"
   style="fill:#ffffff"
   transform="matrix(-0.0195262,0,0,-0.01953125,-4.295712e-4,0.62679637)">
</g>
<g
   id="g12"
   style="fill:#ffffff"
   transform="matrix(-0.0195262,0,0,-0.01953125,-4.295712e-4,0.62679637)">
</g>
<g
   id="g14"
   style="fill:#ffffff"
   transform="matrix(-0.0195262,0,0,-0.01953125,-4.295712e-4,0.62679637)">
</g>
<g
   id="g16"
   style="fill:#ffffff"
   transform="matrix(-0.0195262,0,0,-0.01953125,-4.295712e-4,0.62679637)">
</g>
<g
   id="g18"
   style="fill:#ffffff"
   transform="matrix(-0.0195262,0,0,-0.01953125,-4.295712e-4,0.62679637)">
</g>
<g
   id="g20"
   style="fill:#ffffff"
   transform="matrix(-0.0195262,0,0,-0.01953125,-4.295712e-4,0.62679637)">
</g>
<g
   id="g22"
   style="fill:#ffffff"
   transform="matrix(-0.0195262,0,0,-0.01953125,-4.295712e-4,0.62679637)">
</g>
<g
   id="g24"
   style="fill:#ffffff"
   transform="matrix(-0.0195262,0,0,-0.01953125,-4.295712e-4,0.62679637)">
</g>
<g
   id="g26"
   style="fill:#ffffff"
   transform="matrix(-0.0195262,0,0,-0.01953125,-4.295712e-4,0.62679637)">
</g>
<g
   id="g28"
   style="fill:#ffffff"
   transform="matrix(-0.0195262,0,0,-0.01953125,-4.295712e-4,0.62679637)">
</g>
<g
   id="g30"
   style="fill:#ffffff"
   transform="matrix(-0.0195262,0,0,-0.01953125,-4.295712e-4,0.62679637)">
</g>
<g
   id="g32"
   style="fill:#ffffff"
   transform="matrix(-0.0195262,0,0,-0.01953125,-4.295712e-4,0.62679637)">
</g>
<g
   id="g34"
   style="fill:#ffffff"
   transform="matrix(-0.0195262,0,0,-0.01953125,-4.295712e-4,0.62679637)">
</g>
</svg>