<?xml version="1.0" encoding="iso-8859-1"?>
<!-- Generator: Adobe Illustrator 18.0.0, SVG Export Plug-In . SVG Version: 6.00 Build 0)  -->
<!DOCTYPE svg PUBLIC "-//W3C//DTD SVG 1.1//EN" "http://www.w3.org/Graphics/SVG/1.1/DTD/svg11.dtd">
<svg version="1.1" id="&#x56FE;&#x5C42;_1" xmlns="http://www.w3.org/2000/svg" xmlns:xlink="http://www.w3.org/1999/xlink" x="0px"
	 y="0px" viewBox="0 0 16 16" style="enable-background:new 0 0 16 16;" xml:space="preserve">
<g>
	<g style="opacity:0.3;">
		<path style="fill:#FFFFFF;" d="M14.959,7.079c-0.133,0-0.267-0.053-0.364-0.158C12.827,5.037,10.482,4,7.993,4
			S3.159,5.037,1.392,6.921C1.203,7.124,0.885,7.133,0.686,6.943C0.483,6.755,0.474,6.438,0.663,6.237C2.621,4.149,5.225,3,7.993,3
			s5.372,1.149,7.33,3.237c0.189,0.201,0.18,0.518-0.022,0.706C15.205,7.034,15.082,7.079,14.959,7.079z"/>
	</g>
	<g>
		<path style="fill:#FFFFFF;" d="M12.969,9.199c-0.133,0-0.267-0.053-0.364-0.158C11.369,7.725,9.731,7,7.993,7
			S4.617,7.725,3.382,9.041C3.193,9.244,2.875,9.253,2.676,9.063C2.474,8.875,2.464,8.559,2.653,8.357C4.079,6.837,5.976,6,7.993,6
			s3.914,0.837,5.34,2.357c0.189,0.201,0.18,0.518-0.022,0.706C13.215,9.154,13.092,9.199,12.969,9.199z"/>
	</g>
	<g>
		<path style="fill:#FFFFFF;" d="M5.007,11.318c-0.123,0-0.245-0.045-0.342-0.136c-0.201-0.188-0.212-0.505-0.022-0.706
			C5.535,9.524,6.725,9,7.993,9c1.268,0,2.458,0.524,3.352,1.477c0.189,0.201,0.18,0.518-0.022,0.706
			c-0.199,0.188-0.517,0.181-0.706-0.022c-1.407-1.497-3.842-1.496-5.245,0C5.273,11.266,5.14,11.318,5.007,11.318z"/>
	</g>
	<g>
		<path style="fill:#FFFFFF;" d="M6.661,12.569l1.339,1.427l1.337-1.424c0,0-0.013-0.007-0.021-0.015
			C8.583,11.775,7.325,11.862,6.661,12.569z"/>
	</g>
</g>
</svg>
