<?xml version="1.0" encoding="iso-8859-1"?>
<!-- Generator: Adobe Illustrator 18.0.0, SVG Export Plug-In . SVG Version: 6.00 Build 0)  -->
<!DOCTYPE svg PUBLIC "-//W3C//DTD SVG 1.1//EN" "http://www.w3.org/Graphics/SVG/1.1/DTD/svg11.dtd">
<svg version="1.1" id="&#x56FE;&#x5C42;_1" xmlns="http://www.w3.org/2000/svg" xmlns:xlink="http://www.w3.org/1999/xlink" x="0px"
	 y="0px" viewBox="0 0 16 16" style="enable-background:new 0 0 16 16;" xml:space="preserve">
<g>
	<path style="fill:#FFFFFF;" d="M8.009,13.935c-0.127,0-0.253-0.048-0.351-0.144L0.684,6.936c-0.193-0.19-0.2-0.5-0.015-0.698
		c0.95-1.013,2.058-1.81,3.292-2.367c2.559-1.154,5.52-1.154,8.078,0c1.234,0.558,2.342,1.354,3.292,2.367
		c0.186,0.198,0.179,0.508-0.015,0.698l-6.957,6.855C8.263,13.887,8.136,13.935,8.009,13.935z M1.741,6.573l6.268,6.16l6.25-6.16
		c-0.778-0.752-1.662-1.354-2.632-1.791c-2.297-1.039-4.957-1.039-7.254,0C3.403,5.22,2.521,5.821,1.741,6.573z"/>
</g>
</svg>
