<?xml version="1.0" encoding="UTF-8" standalone="no"?>
<!-- Generator: Adobe Illustrator 19.0.0, SVG Export Plug-In . SVG Version: 6.00 Build 0)  -->

<svg
   xmlns:dc="http://purl.org/dc/elements/1.1/"
   xmlns:cc="http://creativecommons.org/ns#"
   xmlns:rdf="http://www.w3.org/1999/02/22-rdf-syntax-ns#"
   xmlns:svg="http://www.w3.org/2000/svg"
   xmlns="http://www.w3.org/2000/svg"
   xmlns:sodipodi="http://sodipodi.sourceforge.net/DTD/sodipodi-0.dtd"
   xmlns:inkscape="http://www.inkscape.org/namespaces/inkscape"
   version="1.1"
   id="Capa_1"
   x="0px"
   y="0px"
   viewBox="0 0 1.8984375 1.6875"
   xml:space="preserve"
   width="18"
   height="16"
   sodipodi:docname="empty.svg"
   inkscape:version="0.92.2 2405546, 2018-03-11"><metadata
   id="metadata43"><rdf:RDF><cc:Work
       rdf:about=""><dc:format>image/svg+xml</dc:format><dc:type
         rdf:resource="http://purl.org/dc/dcmitype/StillImage" /><dc:title /></cc:Work></rdf:RDF></metadata><defs
   id="defs41" /><sodipodi:namedview
   pagecolor="#ffffff"
   bordercolor="#666666"
   borderopacity="1"
   objecttolerance="10"
   gridtolerance="10"
   guidetolerance="10"
   inkscape:pageopacity="0"
   inkscape:pageshadow="2"
   inkscape:window-width="1920"
   inkscape:window-height="968"
   id="namedview39"
   showgrid="false"
   inkscape:zoom="38.890879"
   inkscape:cx="3.6908926"
   inkscape:cy="9.4158561"
   inkscape:window-x="0"
   inkscape:window-y="26"
   inkscape:window-maximized="1"
   inkscape:current-layer="g6" />
<g
   id="g6"
   transform="matrix(0.03209918,0,0,0.03209918,0,-0.02292775)"
   style="fill:#000000">
	
	<path
   d="m 26.894,4 c -0.551,0 -1.097,0.153 -1.579,0.444 -0.046,0.027 -0.09,0.059 -0.13,0.093 L 11.634,16 H 1 c -0.553,0 -1,0.447 -1,1 v 19 c 0,0.553 0.447,1 1,1 h 10.61 l 13.543,12.436 c 0.05,0.046 0.104,0.086 0.161,0.12 C 25.797,49.847 26.343,50 26.894,50 28.606,50 30,48.584 30,46.844 V 7.156 C 30,5.416 28.606,4 26.894,4 Z M 13,35 c 0,0.553 -0.447,1 -1,1 -0.553,0 -1,-0.447 -1,-1 v -4 c 0,-0.553 0.447,-1 1,-1 0.553,0 1,0.447 1,1 z m 0,-13 c 0,0.553 -0.447,1 -1,1 -0.553,0 -1,-0.447 -1,-1 v -4 c 0,-0.553 0.447,-1 1,-1 0.553,0 1,0.447 1,1 z"
   id="path4"
   inkscape:connector-curvature="0"
   style="fill:#ffffff" />
</g>
<g
   id="g8"
   transform="matrix(0.03209918,0,0,0.03209918,0,-0.02292775)"
   style="fill:#000000">
</g>
<g
   id="g10"
   transform="matrix(0.03209918,0,0,0.03209918,0,-0.02292775)"
   style="fill:#000000">
</g>
<g
   id="g12"
   transform="matrix(0.03209918,0,0,0.03209918,0,-0.02292775)"
   style="fill:#000000">
</g>
<g
   id="g14"
   transform="matrix(0.03209918,0,0,0.03209918,0,-0.02292775)"
   style="fill:#000000">
</g>
<g
   id="g16"
   transform="matrix(0.03209918,0,0,0.03209918,0,-0.02292775)"
   style="fill:#000000">
</g>
<g
   id="g18"
   transform="matrix(0.03209918,0,0,0.03209918,0,-0.02292775)"
   style="fill:#000000">
</g>
<g
   id="g20"
   transform="matrix(0.03209918,0,0,0.03209918,0,-0.02292775)"
   style="fill:#000000">
</g>
<g
   id="g22"
   transform="matrix(0.03209918,0,0,0.03209918,0,-0.02292775)"
   style="fill:#000000">
</g>
<g
   id="g24"
   transform="matrix(0.03209918,0,0,0.03209918,0,-0.02292775)"
   style="fill:#000000">
</g>
<g
   id="g26"
   transform="matrix(0.03209918,0,0,0.03209918,0,-0.02292775)"
   style="fill:#000000">
</g>
<g
   id="g28"
   transform="matrix(0.03209918,0,0,0.03209918,0,-0.02292775)"
   style="fill:#000000">
</g>
<g
   id="g30"
   transform="matrix(0.03209918,0,0,0.03209918,0,-0.02292775)"
   style="fill:#000000">
</g>
<g
   id="g32"
   transform="matrix(0.03209918,0,0,0.03209918,0,-0.02292775)"
   style="fill:#000000">
</g>
<g
   id="g34"
   transform="matrix(0.03209918,0,0,0.03209918,0,-0.02292775)"
   style="fill:#000000">
</g>
<g
   id="g36"
   transform="matrix(0.03209918,0,0,0.03209918,0,-0.02292775)"
   style="fill:#000000">
</g>
</svg>