<svg xmlns="http://www.w3.org/2000/svg" xmlns:svg="http://www.w3.org/2000/svg" id="Capa_1" width="18" height="16" x="0" y="0" version="1.1" viewBox="0 0 1.829 1.626" xml:space="preserve"><metadata id="metadata45"/><g id="g8" fill="#fff" transform="matrix(0.03092578,0,0,0.03092578,0.00369503,0.00843396)"><path id="path2" fill="#fff" d="m 26.894,3.013 c -0.551,0 -1.097,0.153 -1.579,0.444 -0.046,0.027 -0.09,0.059 -0.13,0.093 L 11.634,15.013 H 1 c -0.553,0 -1,0.447 -1,1 v 19 c 0,0.553 0.447,1 1,1 h 10.61 l 13.543,12.436 c 0.05,0.046 0.104,0.086 0.161,0.12 0.482,0.291 1.028,0.444 1.579,0.444 1.713,0 3.106,-1.416 3.106,-3.156 V 6.169 C 30,4.429 28.606,3.013 26.894,3.013 Z M 13,34.013 c 0,0.553 -0.447,1 -1,1 -0.553,0 -1,-0.447 -1,-1 v -4 c 0,-0.553 0.447,-1 1,-1 0.553,0 1,0.447 1,1 z m 0,-13 c 0,0.553 -0.447,1 -1,1 -0.553,0 -1,-0.447 -1,-1 v -4 c 0,-0.553 0.447,-1 1,-1 0.553,0 1,0.447 1,1 z"/><path id="path4" fill="#fff" d="m 38.797,7.066 c -0.523,-0.177 -1.091,0.103 -1.269,0.626 -0.177,0.522 0.103,1.091 0.626,1.269 7.101,2.411 11.872,9.063 11.872,16.553 0,7.483 -4.762,14.136 -11.849,16.554 -0.522,0.178 -0.802,0.746 -0.623,1.27 0.142,0.415 0.53,0.677 0.946,0.677 0.107,0 0.216,-0.017 0.323,-0.054 C 46.719,41.268 52.025,33.855 52.025,25.515 52.026,17.167 46.71,9.753 38.797,7.066 Z"/><path id="path6" fill="#fff" d="m 43.026,25.513 c 0,-5.972 -4.009,-11.302 -9.749,-12.962 -0.533,-0.151 -1.084,0.152 -1.238,0.684 -0.153,0.53 0.152,1.085 0.684,1.238 4.889,1.413 8.304,5.953 8.304,11.04 0,5.087 -3.415,9.627 -8.304,11.04 -0.531,0.153 -0.837,0.708 -0.684,1.238 0.127,0.438 0.526,0.723 0.961,0.723 0.092,0 0.185,-0.013 0.277,-0.039 5.741,-1.66 9.749,-6.99 9.749,-12.962 z"/></g></svg>