<svg xmlns="http://www.w3.org/2000/svg" xmlns:svg="http://www.w3.org/2000/svg" id="Capa_1" width="18" height="16" x="0" y="0" version="1.1" viewBox="0 0 1.617 1.438" xml:space="preserve"><metadata id="metadata43"/><g id="g6" fill="#fff" transform="matrix(0.02734375,0,0,0.02734375,-0.04066016,0.08984375)"><path id="path2" fill="#fff" d="m 28.38,0 c -0.551,0 -1.097,0.153 -1.579,0.444 -0.046,0.027 -0.09,0.059 -0.13,0.093 L 13.121,12 H 2.487 c -0.553,0 -1,0.447 -1,1 v 19 c 0,0.553 0.447,1 1,1 h 10.61 L 26.64,45.436 c 0.05,0.046 0.104,0.086 0.161,0.12 0.483,0.291 1.029,0.444 1.579,0.444 1.713,0 3.106,-1.416 3.106,-3.156 V 3.156 C 31.487,1.416 30.093,0 28.38,0 Z M 14.487,31 c 0,0.553 -0.447,1 -1,1 -0.553,0 -1,-0.447 -1,-1 v -4 c 0,-0.553 0.447,-1 1,-1 0.553,0 1,0.447 1,1 z m 0,-13 c 0,0.553 -0.447,1 -1,1 -0.553,0 -1,-0.447 -1,-1 v -4 c 0,-0.553 0.447,-1 1,-1 0.553,0 1,0.447 1,1 z"/><path id="path4" fill="#fff" d="m 44.513,22.5 c 0,-5.972 -4.009,-11.302 -9.749,-12.962 -0.533,-0.151 -1.084,0.152 -1.238,0.684 -0.153,0.53 0.152,1.085 0.684,1.238 4.889,1.413 8.304,5.953 8.304,11.04 0,5.087 -3.415,9.627 -8.304,11.04 -0.531,0.153 -0.837,0.708 -0.684,1.238 0.127,0.438 0.526,0.723 0.961,0.723 0.092,0 0.185,-0.013 0.277,-0.039 5.74,-1.66 9.749,-6.99 9.749,-12.962 z"/></g></svg>