<svg xmlns="http://www.w3.org/2000/svg" xmlns:svg="http://www.w3.org/2000/svg" id="Capa_1" width="18" height="16" x="0" y="0" version="1.1" viewBox="0 0 1.898 1.688" xml:space="preserve"><metadata id="metadata43"/><g id="g6" fill="#fff" transform="matrix(0.03209918,0,0,0.03209918,0,-0.02292775)"><path id="path2" fill="#fff" d="m 46.414,26 7.293,-7.293 c 0.391,-0.391 0.391,-1.023 0,-1.414 -0.391,-0.391 -1.023,-0.391 -1.414,0 L 45,24.586 37.707,17.293 c -0.391,-0.391 -1.023,-0.391 -1.414,0 -0.391,0.391 -0.391,1.023 0,1.414 L 43.586,26 36.293,33.293 c -0.391,0.391 -0.391,1.023 0,1.414 C 36.488,34.902 36.744,35 37,35 c 0.256,0 0.512,-0.098 0.707,-0.293 L 45,27.414 52.293,34.707 C 52.488,34.902 52.744,35 53,35 c 0.256,0 0.512,-0.098 0.707,-0.293 0.391,-0.391 0.391,-1.023 0,-1.414 z"/><path id="path4" fill="#fff" d="m 26.894,4 c -0.551,0 -1.097,0.153 -1.579,0.444 -0.046,0.027 -0.09,0.059 -0.13,0.093 L 11.634,16 H 1 c -0.553,0 -1,0.447 -1,1 v 19 c 0,0.553 0.447,1 1,1 h 10.61 l 13.543,12.436 c 0.05,0.046 0.104,0.086 0.161,0.12 C 25.797,49.847 26.343,50 26.894,50 28.606,50 30,48.584 30,46.844 V 7.156 C 30,5.416 28.606,4 26.894,4 Z M 13,35 c 0,0.553 -0.447,1 -1,1 -0.553,0 -1,-0.447 -1,-1 v -4 c 0,-0.553 0.447,-1 1,-1 0.553,0 1,0.447 1,1 z m 0,-13 c 0,0.553 -0.447,1 -1,1 -0.553,0 -1,-0.447 -1,-1 v -4 c 0,-0.553 0.447,-1 1,-1 0.553,0 1,0.447 1,1 z"/></g></svg>