<?xml version="1.0" encoding="UTF-8" standalone="no"?>
<!-- Generator: Adobe Illustrator 16.0.0, SVG Export Plug-In . SVG Version: 6.00 Build 0)  -->

<svg
   xmlns:dc="http://purl.org/dc/elements/1.1/"
   xmlns:cc="http://creativecommons.org/ns#"
   xmlns:rdf="http://www.w3.org/1999/02/22-rdf-syntax-ns#"
   xmlns:svg="http://www.w3.org/2000/svg"
   xmlns="http://www.w3.org/2000/svg"
   xmlns:sodipodi="http://sodipodi.sourceforge.net/DTD/sodipodi-0.dtd"
   xmlns:inkscape="http://www.inkscape.org/namespaces/inkscape"
   version="1.1"
   id="Capa_1"
   x="0px"
   y="0px"
   width="32px"
   height="32px"
   viewBox="0 0 32 32"
   style="enable-background:new 0 0 32 32;"
   xml:space="preserve"
   sodipodi:docname="battery-charging-status.svg"
   inkscape:version="0.92.2 2405546, 2018-03-11"><metadata
   id="metadata3837"><rdf:RDF><cc:Work
       rdf:about=""><dc:format>image/svg+xml</dc:format><dc:type
         rdf:resource="http://purl.org/dc/dcmitype/StillImage" /></cc:Work></rdf:RDF></metadata><defs
   id="defs3835" /><sodipodi:namedview
   pagecolor="#ffffff"
   bordercolor="#666666"
   borderopacity="1"
   objecttolerance="10"
   gridtolerance="10"
   guidetolerance="10"
   inkscape:pageopacity="0"
   inkscape:pageshadow="2"
   inkscape:window-width="1920"
   inkscape:window-height="968"
   id="namedview3833"
   showgrid="false"
   inkscape:zoom="24.0625"
   inkscape:cx="16"
   inkscape:cy="16"
   inkscape:window-x="0"
   inkscape:window-y="26"
   inkscape:window-maximized="1"
   inkscape:current-layer="Almost_x5F_Full_x5F_Battery" />
<g
   id="g3800">
	<g
   id="Almost_x5F_Full_x5F_Battery">
		<g
   id="g3797"
   style="fill:#ffffff">
			<path
   d="M30,11h-2c0-1.654-1.346-3-3-3H3c-1.654,0-3,1.346-3,3v10c0,1.654,1.346,3,3,3h22c1.654,0,3-1.346,3-3h2     c1.104,0,2-0.896,2-2v-6C32,11.897,31.104,11,30,11z M26,21c0,0.552-0.448,1-1,1H3c-0.552,0-1-0.448-1-1V11c0-0.552,0.448-1,1-1     h22c0.552,0,1,0.448,1,1V21z M30,19h-2v-6h2V19z M18.895,12.895C18.648,12.402,17.998,12,17.448,12H5c-0.55,0-1,0.45-1,1v6     c0,0.55,0.45,1,1,1h16.447c0.55,0,0.799-0.402,0.553-0.895L18.895,12.895z"
   id="path3795"
   style="fill:#ffffff" />
		</g>
	</g>
</g>
<g
   id="g3802">
</g>
<g
   id="g3804">
</g>
<g
   id="g3806">
</g>
<g
   id="g3808">
</g>
<g
   id="g3810">
</g>
<g
   id="g3812">
</g>
<g
   id="g3814">
</g>
<g
   id="g3816">
</g>
<g
   id="g3818">
</g>
<g
   id="g3820">
</g>
<g
   id="g3822">
</g>
<g
   id="g3824">
</g>
<g
   id="g3826">
</g>
<g
   id="g3828">
</g>
<g
   id="g3830">
</g>
</svg>