<?xml version="1.0" encoding="UTF-8" standalone="no"?>
<!-- Generator: Adobe Illustrator 16.0.0, SVG Export Plug-In . SVG Version: 6.00 Build 0)  -->

<svg
   xmlns:dc="http://purl.org/dc/elements/1.1/"
   xmlns:cc="http://creativecommons.org/ns#"
   xmlns:rdf="http://www.w3.org/1999/02/22-rdf-syntax-ns#"
   xmlns:svg="http://www.w3.org/2000/svg"
   xmlns="http://www.w3.org/2000/svg"
   xmlns:sodipodi="http://sodipodi.sourceforge.net/DTD/sodipodi-0.dtd"
   xmlns:inkscape="http://www.inkscape.org/namespaces/inkscape"
   version="1.1"
   id="Capa_1"
   x="0px"
   y="0px"
   width="24"
   height="12"
   viewBox="0 0 24 12"
   xml:space="preserve"
   sodipodi:docname="battery-charging-status.svg"
   inkscape:version="0.92.2 2405546, 2018-03-11"><metadata
   id="metadata3837"><rdf:RDF><cc:Work
       rdf:about=""><dc:format>image/svg+xml</dc:format><dc:type
         rdf:resource="http://purl.org/dc/dcmitype/StillImage" /><dc:title></dc:title></cc:Work></rdf:RDF></metadata><defs
   id="defs3835" /><sodipodi:namedview
   pagecolor="#ffffff"
   bordercolor="#666666"
   borderopacity="1"
   objecttolerance="10"
   gridtolerance="10"
   guidetolerance="10"
   inkscape:pageopacity="0"
   inkscape:pageshadow="2"
   inkscape:window-width="1920"
   inkscape:window-height="968"
   id="namedview3833"
   showgrid="false"
   inkscape:zoom="24.0625"
   inkscape:cx="15.625974"
   inkscape:cy="4.4051948"
   inkscape:window-x="0"
   inkscape:window-y="26"
   inkscape:window-maximized="1"
   inkscape:current-layer="Almost_x5F_Full_x5F_Battery" />
<g
   id="g3800"
   transform="translate(0,-20)">
	<g
   id="Almost_x5F_Full_x5F_Battery">
		<g
   id="g3797"
   style="fill:#ffffff"
   transform="matrix(0.75,0,0,0.75,0,14)">
			<path
   d="M 30,11 H 28 C 28,9.346 26.654,8 25,8 H 3 C 1.346,8 0,9.346 0,11 v 10 c 0,1.654 1.346,3 3,3 h 22 c 1.654,0 3,-1.346 3,-3 h 2 c 1.104,0 2,-0.896 2,-2 v -6 c 0,-1.103 -0.896,-2 -2,-2 z m -4,10 c 0,0.552 -0.448,1 -1,1 H 3 C 2.448,22 2,21.552 2,21 V 11 c 0,-0.552 0.448,-1 1,-1 h 22 c 0.552,0 1,0.448 1,1 z m 4,-2 h -2 v -6 h 2 z M 18.895,12.895 C 18.648,12.402 17.998,12 17.448,12 H 5 c -0.55,0 -1,0.45 -1,1 v 6 c 0,0.55 0.45,1 1,1 h 16.447 c 0.55,0 0.799,-0.402 0.553,-0.895 z"
   id="path3795"
   style="fill:#ffffff"
   inkscape:connector-curvature="0" />
		</g>
	</g>
</g>
<g
   id="g3802"
   transform="translate(0,-20)">
</g>
<g
   id="g3804"
   transform="translate(0,-20)">
</g>
<g
   id="g3806"
   transform="translate(0,-20)">
</g>
<g
   id="g3808"
   transform="translate(0,-20)">
</g>
<g
   id="g3810"
   transform="translate(0,-20)">
</g>
<g
   id="g3812"
   transform="translate(0,-20)">
</g>
<g
   id="g3814"
   transform="translate(0,-20)">
</g>
<g
   id="g3816"
   transform="translate(0,-20)">
</g>
<g
   id="g3818"
   transform="translate(0,-20)">
</g>
<g
   id="g3820"
   transform="translate(0,-20)">
</g>
<g
   id="g3822"
   transform="translate(0,-20)">
</g>
<g
   id="g3824"
   transform="translate(0,-20)">
</g>
<g
   id="g3826"
   transform="translate(0,-20)">
</g>
<g
   id="g3828"
   transform="translate(0,-20)">
</g>
<g
   id="g3830"
   transform="translate(0,-20)">
</g>
</svg>