<?xml version="1.0" encoding="UTF-8" standalone="no"?>
<!-- Generator: Adobe Illustrator 16.0.0, SVG Export Plug-In . SVG Version: 6.00 Build 0)  -->

<svg
   xmlns:dc="http://purl.org/dc/elements/1.1/"
   xmlns:cc="http://creativecommons.org/ns#"
   xmlns:rdf="http://www.w3.org/1999/02/22-rdf-syntax-ns#"
   xmlns:svg="http://www.w3.org/2000/svg"
   xmlns="http://www.w3.org/2000/svg"
   xmlns:sodipodi="http://sodipodi.sourceforge.net/DTD/sodipodi-0.dtd"
   xmlns:inkscape="http://www.inkscape.org/namespaces/inkscape"
   version="1.1"
   id="Capa_1"
   x="0px"
   y="0px"
   width="32px"
   height="32px"
   viewBox="0 0 32 32"
   style="enable-background:new 0 0 32 32;"
   xml:space="preserve"
   sodipodi:docname="full-battery-.svg"
   inkscape:version="0.92.2 2405546, 2018-03-11"><metadata
   id="metadata4242"><rdf:RDF><cc:Work
       rdf:about=""><dc:format>image/svg+xml</dc:format><dc:type
         rdf:resource="http://purl.org/dc/dcmitype/StillImage" /></cc:Work></rdf:RDF></metadata><defs
   id="defs4240" /><sodipodi:namedview
   pagecolor="#ffffff"
   bordercolor="#666666"
   borderopacity="1"
   objecttolerance="10"
   gridtolerance="10"
   guidetolerance="10"
   inkscape:pageopacity="0"
   inkscape:pageshadow="2"
   inkscape:window-width="640"
   inkscape:window-height="480"
   id="namedview4238"
   showgrid="false"
   inkscape:zoom="7.375"
   inkscape:cx="16"
   inkscape:cy="16"
   inkscape:window-x="607"
   inkscape:window-y="245"
   inkscape:window-maximized="0"
   inkscape:current-layer="Capa_1" />
<g
   id="g4205"
   style="fill:#ffffff">
	<g
   id="Full_x5F_Battery"
   style="fill:#ffffff">
		<g
   id="g4202"
   style="fill:#ffffff">
			<path
   d="M23,12H5c-0.553,0-1,0.447-1,1v6c0,0.553,0.447,1,1,1h18c0.553,0,1-0.447,1-1v-6C24,12.447,23.553,12,23,12z M30,11h-2     c0-1.654-1.346-3-3-3H3c-1.654,0-3,1.346-3,3v10c0,1.654,1.346,3,3,3h22c1.654,0,3-1.346,3-3h2c1.104,0,2-0.896,2-2v-6     C32,11.897,31.104,11,30,11z M26,21c0,0.552-0.448,1-1,1H3c-0.552,0-1-0.448-1-1V11c0-0.552,0.448-1,1-1h22c0.552,0,1,0.448,1,1     V21z M30,19h-2v-6h2V19z"
   id="path4200"
   style="fill:#ffffff" />
		</g>
	</g>
</g>
<g
   id="g4207">
</g>
<g
   id="g4209">
</g>
<g
   id="g4211">
</g>
<g
   id="g4213">
</g>
<g
   id="g4215">
</g>
<g
   id="g4217">
</g>
<g
   id="g4219">
</g>
<g
   id="g4221">
</g>
<g
   id="g4223">
</g>
<g
   id="g4225">
</g>
<g
   id="g4227">
</g>
<g
   id="g4229">
</g>
<g
   id="g4231">
</g>
<g
   id="g4233">
</g>
<g
   id="g4235">
</g>
</svg>