<?xml version="1.0" encoding="UTF-8" standalone="no"?>
<!-- Generator: Adobe Illustrator 16.0.0, SVG Export Plug-In . SVG Version: 6.00 Build 0)  -->

<svg
   xmlns:dc="http://purl.org/dc/elements/1.1/"
   xmlns:cc="http://creativecommons.org/ns#"
   xmlns:rdf="http://www.w3.org/1999/02/22-rdf-syntax-ns#"
   xmlns:svg="http://www.w3.org/2000/svg"
   xmlns="http://www.w3.org/2000/svg"
   xmlns:sodipodi="http://sodipodi.sourceforge.net/DTD/sodipodi-0.dtd"
   xmlns:inkscape="http://www.inkscape.org/namespaces/inkscape"
   version="1.1"
   id="Capa_1"
   x="0px"
   y="0px"
   width="32px"
   height="32px"
   viewBox="0 0 32 32"
   style="enable-background:new 0 0 32 32;"
   xml:space="preserve"
   sodipodi:docname="low-battery.svg"
   inkscape:version="0.92.2 2405546, 2018-03-11"><metadata
   id="metadata4330"><rdf:RDF><cc:Work
       rdf:about=""><dc:format>image/svg+xml</dc:format><dc:type
         rdf:resource="http://purl.org/dc/dcmitype/StillImage" /></cc:Work></rdf:RDF></metadata><defs
   id="defs4328" /><sodipodi:namedview
   pagecolor="#ffffff"
   bordercolor="#666666"
   borderopacity="1"
   objecttolerance="10"
   gridtolerance="10"
   guidetolerance="10"
   inkscape:pageopacity="0"
   inkscape:pageshadow="2"
   inkscape:window-width="640"
   inkscape:window-height="480"
   id="namedview4326"
   showgrid="false"
   inkscape:zoom="7.375"
   inkscape:cx="16"
   inkscape:cy="16"
   inkscape:window-x="709"
   inkscape:window-y="256"
   inkscape:window-maximized="0"
   inkscape:current-layer="g4293" />
<g
   id="g4293">
	<g
   id="Low_x5F_Charged_x5F_Battery"
   style="fill:#ffffff">
		<g
   id="g4290"
   style="fill:#ffffff">
			<path
   d="M30,11h-2c0-1.654-1.346-3-3-3H3c-1.654,0-3,1.346-3,3v10c0,1.654,1.346,3,3,3h22c1.654,0,3-1.346,3-3h2     c1.104,0,2-0.896,2-2v-6C32,11.897,31.104,11,30,11z M26,21c0,0.552-0.448,1-1,1H3c-0.552,0-1-0.448-1-1V11c0-0.552,0.448-1,1-1     h22c0.552,0,1,0.448,1,1V21z M30,19h-2v-6h2V19z M7.447,12.895C7.201,12.402,6.55,12,6,12H5c-0.55,0-1,0.45-1,1v6     c0,0.55,0.45,1,1,1h5c0.55,0,0.799-0.402,0.553-0.895L7.447,12.895z"
   id="path4288"
   style="fill:#ffffff" />
		</g>
	</g>
</g>
<g
   id="g4295">
</g>
<g
   id="g4297">
</g>
<g
   id="g4299">
</g>
<g
   id="g4301">
</g>
<g
   id="g4303">
</g>
<g
   id="g4305">
</g>
<g
   id="g4307">
</g>
<g
   id="g4309">
</g>
<g
   id="g4311">
</g>
<g
   id="g4313">
</g>
<g
   id="g4315">
</g>
<g
   id="g4317">
</g>
<g
   id="g4319">
</g>
<g
   id="g4321">
</g>
<g
   id="g4323">
</g>
</svg>