<?xml version="1.0" encoding="iso-8859-1"?>
<!-- Generator: Adobe Illustrator 18.0.0, SVG Export Plug-In . SVG Version: 6.00 Build 0)  -->
<!DOCTYPE svg PUBLIC "-//W3C//DTD SVG 1.1//EN" "http://www.w3.org/Graphics/SVG/1.1/DTD/svg11.dtd">
<svg version="1.1" id="&#x56FE;&#x5C42;_1" xmlns="http://www.w3.org/2000/svg" xmlns:xlink="http://www.w3.org/1999/xlink" x="0px"
	 y="0px" viewBox="0 0 16 16" style="enable-background:new 0 0 16 16;" xml:space="preserve">
<g style="opacity:0.3;">
	<g>
		<path style="fill:#FFFFFF;" d="M6.358,7.511c-0.191,0.027-0.372,0.12-0.503,0.26L4.664,8.959c-0.16,0.155-0.256,0.373-0.261,0.595
			v1.188c0,0.005,0,0.012,0,0.019l-2.229,2.2c-0.233,0.233-0.233,0.621,0,0.854c0.234,0.231,0.623,0.231,0.856,0l2.228-2.219H6.45
			c0.222-0.006,0.44-0.101,0.596-0.26l1.19-1.188c0.306-0.316,0.306-0.874,0-1.189l-1.19-1.188C6.87,7.589,6.61,7.49,6.358,7.511z"
			/>
	</g>
	<g>
		<path style="fill:#FFFFFF;" d="M9.644,8.465c0.19-0.026,0.37-0.12,0.502-0.26l1.19-1.188c0.161-0.155,0.256-0.373,0.261-0.595
			V5.235c0-0.006,0-0.012,0-0.018l2.228-2.201c0.233-0.232,0.233-0.621,0-0.853c-0.233-0.232-0.623-0.232-0.856,0L10.74,4.381H9.55
			C9.328,4.386,9.11,4.482,8.955,4.642L7.764,5.829c-0.306,0.315-0.306,0.874,0,1.189l1.191,1.188
			C9.131,8.388,9.39,8.487,9.644,8.465z"/>
	</g>
</g>
</svg>
