<?xml version="1.0" encoding="iso-8859-1"?>
<!-- Generator: Adobe Illustrator 18.0.0, SVG Export Plug-In . SVG Version: 6.00 Build 0)  -->
<!DOCTYPE svg PUBLIC "-//W3C//DTD SVG 1.1//EN" "http://www.w3.org/Graphics/SVG/1.1/DTD/svg11.dtd">
<svg version="1.1" id="&#x56FE;&#x5C42;_1" xmlns="http://www.w3.org/2000/svg" xmlns:xlink="http://www.w3.org/1999/xlink" x="0px"
	 y="0px" viewBox="0 0 16 16" style="enable-background:new 0 0 16 16;" xml:space="preserve">
<g>
	<g>
		<g>
			<path style="fill:#FFFFFF;" d="M6.358,7.523c-0.191,0.027-0.372,0.12-0.503,0.26l-1.19,1.188
				c-0.16,0.155-0.256,0.373-0.261,0.595v1.188c0,0.005,0,0.012,0,0.019l-2.229,2.2c-0.233,0.233-0.233,0.621,0,0.854
				c0.234,0.231,0.623,0.231,0.856,0l2.227-2.219H6.45c0.222-0.006,0.441-0.101,0.596-0.26l1.19-1.188
				c0.306-0.315,0.306-0.874,0-1.188l-1.19-1.188C6.87,7.601,6.61,7.502,6.358,7.523z"/>
		</g>
		<g>
			<path style="fill:#FFFFFF;" d="M9.644,8.477c0.19-0.026,0.37-0.12,0.502-0.26l1.19-1.187c0.161-0.155,0.256-0.373,0.261-0.595
				V5.246c0-0.006,0-0.012,0-0.018l2.228-2.201c0.233-0.232,0.233-0.621,0-0.853c-0.233-0.232-0.623-0.232-0.856,0l-2.228,2.218
				h-1.19C9.328,4.398,9.11,4.493,8.955,4.653L7.764,5.84c-0.306,0.315-0.306,0.874,0,1.189l1.191,1.187
				C9.131,8.4,9.39,8.498,9.644,8.477z"/>
		</g>
	</g>
	<path style="fill:#C30D23;" d="M11.713,11.989l1.143-1.143c0.195-0.195,0.196-0.513,0-0.709c-0.195-0.195-0.514-0.195-0.709,0
		l-1.144,1.143L9.86,10.137c-0.195-0.195-0.514-0.195-0.709,0c-0.196,0.196-0.195,0.514,0,0.709l1.143,1.143l-1.143,1.143
		c-0.195,0.195-0.196,0.513,0,0.709c0.098,0.098,0.227,0.146,0.354,0.146s0.257-0.049,0.354-0.146l1.144-1.143l1.144,1.143
		c0.098,0.098,0.227,0.146,0.354,0.146s0.257-0.049,0.354-0.146c0.196-0.196,0.195-0.514,0-0.709L11.713,11.989z"/>
</g>
<g style="opacity:0.3;">
	<g>
		<path style="fill:#FFFFFF;" d="M6.358,7.511c-0.191,0.027-0.372,0.12-0.503,0.26L4.664,8.959c-0.16,0.155-0.256,0.373-0.261,0.595
			v1.188c0,0.005,0,0.012,0,0.019l-2.229,2.2c-0.233,0.233-0.233,0.621,0,0.854c0.234,0.231,0.623,0.231,0.856,0l2.228-2.219H6.45
			c0.222-0.006,0.44-0.101,0.596-0.26l1.19-1.188c0.306-0.316,0.306-0.874,0-1.189l-1.19-1.188C6.87,7.589,6.61,7.49,6.358,7.511z"
			/>
	</g>
	<g>
		<path style="fill:#FFFFFF;" d="M9.644,8.465c0.19-0.026,0.37-0.12,0.502-0.26l1.19-1.188c0.161-0.155,0.256-0.373,0.261-0.595
			V5.235c0-0.006,0-0.012,0-0.018l2.228-2.201c0.233-0.232,0.233-0.621,0-0.853c-0.233-0.232-0.623-0.232-0.856,0L10.74,4.381H9.55
			C9.328,4.386,9.11,4.482,8.955,4.642L7.764,5.829c-0.306,0.315-0.306,0.874,0,1.189l1.191,1.188
			C9.131,8.388,9.39,8.487,9.644,8.465z"/>
	</g>
</g>
</svg>
